<svg width="80" height="80" viewBox="0 0 80 80" fill="none" xmlns="http://www.w3.org/2000/svg">
<rect x="0.577734" y="0.577734" width="78.8445" height="78.8445" rx="39.4223" fill="url(#paint0_linear_0_460)"/>
<rect x="0.577734" y="0.577734" width="78.8445" height="78.8445" rx="39.4223" stroke="url(#paint1_linear_0_460)" stroke-width="1.15547"/>
<rect x="0.577734" y="0.577734" width="78.8445" height="78.8445" rx="39.4223" stroke="url(#paint2_linear_0_460)" stroke-width="1.15547"/>
<path d="M40.0007 23.3335C30.8007 23.3335 23.334 30.8002 23.334 40.0002C23.334 49.2002 30.8007 56.6668 40.0007 56.6668C49.2007 56.6668 56.6673 49.2002 56.6673 40.0002C56.6673 30.8002 49.2007 23.3335 40.0007 23.3335ZM47.734 34.6668C47.484 37.3002 46.4007 43.7002 45.8507 46.6502C45.6173 47.9002 45.1507 48.3168 44.7173 48.3668C43.7507 48.4502 43.0173 47.7335 42.084 47.1168C40.6173 46.1502 39.784 45.5502 38.3673 44.6168C36.7173 43.5335 37.784 42.9335 38.734 41.9668C38.984 41.7168 43.2507 37.8335 43.334 37.4835C43.3456 37.4305 43.344 37.3754 43.3295 37.3232C43.315 37.2709 43.2879 37.2229 43.2507 37.1835C43.1507 37.1002 43.0173 37.1335 42.9007 37.1502C42.7507 37.1835 40.4173 38.7335 35.8673 41.8002C35.2007 42.2502 34.6006 42.4835 34.0673 42.4668C33.4673 42.4502 32.334 42.1335 31.484 41.8502C30.434 41.5168 29.6173 41.3335 29.684 40.7502C29.7173 40.4502 30.134 40.1502 30.9173 39.8335C35.784 37.7168 39.0173 36.3168 40.634 35.6502C45.2673 33.7168 46.2173 33.3835 46.8507 33.3835C46.984 33.3835 47.3006 33.4168 47.5007 33.5835C47.6673 33.7168 47.7173 33.9002 47.734 34.0335C47.7173 34.1335 47.7506 34.4335 47.734 34.6668Z" fill="white"/>
<defs>
<linearGradient id="paint0_linear_0_460" x1="13.7842" y1="-44.3524" x2="109.411" y2="-14.6327" gradientUnits="userSpaceOnUse">
<stop offset="0.15" stop-color="#566070"/>
<stop offset="1" stop-color="#060606"/>
</linearGradient>
<linearGradient id="paint1_linear_0_460" x1="14.3467" y1="-50.7551" x2="109.368" y2="-23.8959" gradientUnits="userSpaceOnUse">
<stop stop-color="#566070"/>
<stop offset="1" stop-color="#060606"/>
</linearGradient>
<linearGradient id="paint2_linear_0_460" x1="14.3467" y1="-50.7551" x2="109.368" y2="-23.8959" gradientUnits="userSpaceOnUse">
<stop stop-color="white" stop-opacity="0.4"/>
<stop offset="1" stop-color="white" stop-opacity="0"/>
</linearGradient>
</defs>
</svg>
