<svg width="557" height="552" viewBox="0 0 557 552" fill="none" xmlns="http://www.w3.org/2000/svg">
<path d="M281.191 352.607C433.35 350.856 556.306 315.262 555.82 273.106C555.335 230.951 431.591 198.198 279.432 199.95C127.273 201.702 4.31639 237.296 4.80222 279.451C5.28804 321.606 129.032 354.359 281.191 352.607Z" stroke="url(#paint0_linear_0_294)" stroke-width="0.389831" stroke-miterlimit="10"/>
<path d="M282.972 476.208C414.04 474.699 519.95 443.851 519.529 407.306C519.108 370.763 412.515 342.361 281.447 343.871C150.379 345.379 44.4688 376.228 44.8899 412.772C45.3111 449.316 151.904 477.718 282.972 476.208Z" stroke="url(#paint1_linear_0_294)" stroke-width="0.389831" stroke-miterlimit="10"/>
<path d="M283.577 541.441C360.257 540.558 422.224 522.963 421.984 502.14C421.744 481.318 359.388 465.155 282.707 466.037C206.027 466.92 144.059 484.516 144.3 505.338C144.54 526.16 206.895 542.324 283.577 541.441Z" stroke="url(#paint2_linear_0_294)" stroke-width="0.389831" stroke-miterlimit="10"/>
<mask id="mask0_0_294" style="mask-type:luminance" maskUnits="userSpaceOnUse" x="4" y="0" width="553" height="552">
<path d="M556.324 0.779663H4.32422V551.22H556.324V0.779663Z" fill="white"/>
</mask>
<g mask="url(#mask0_0_294)">
<path d="M280.282 550.585C432.443 550.585 555.794 427.645 555.794 275.992C555.794 124.338 432.443 1.39783 280.282 1.39783C128.122 1.39783 4.77148 124.338 4.77148 275.992C4.77148 427.645 128.122 550.585 280.282 550.585Z" stroke="url(#paint3_linear_0_294)" stroke-width="0.389831" stroke-miterlimit="10"/>
<path d="M278.404 87.034C356.851 86.1304 420.25 68.424 420.008 47.4854C419.768 26.5467 355.978 10.3049 277.531 11.2082C199.084 12.1115 135.685 29.8179 135.926 50.7565C136.168 71.6951 199.958 87.9369 278.404 87.034Z" stroke="url(#paint4_linear_0_294)" stroke-width="0.389831" stroke-miterlimit="10"/>
<path d="M279.192 208.654C410.529 207.142 516.659 176.415 516.24 140.023C515.82 103.631 409.011 75.3561 277.674 76.8684C146.337 78.3807 40.2068 109.108 40.6262 145.5C41.0456 181.891 147.855 210.166 279.192 208.654Z" stroke="url(#paint5_linear_0_294)" stroke-width="0.389831" stroke-miterlimit="10"/>
<path d="M299.427 276.056C299.427 427.701 290.837 550.65 280.234 550.65C269.631 550.65 261.057 427.701 261.057 276.056C261.057 124.411 271.384 1.51111 281.987 1.51111C292.591 1.51111 299.427 124.33 299.427 276.056Z" stroke="url(#paint6_linear_0_294)" stroke-width="0.389831" stroke-miterlimit="10"/>
<path d="M425.961 300.156C450.6 150.579 405.396 18.5961 324.995 5.36382C244.594 -7.86852 159.442 102.661 134.803 252.238C110.164 401.815 155.368 533.798 235.769 547.031C316.17 560.263 401.321 449.734 425.961 300.156Z" stroke="url(#paint7_linear_0_294)" stroke-width="0.389831" stroke-miterlimit="10"/>
<path d="M509.653 366.515C564.375 228.505 507.148 76.381 381.832 26.7366C256.517 -22.9078 110.568 48.7267 55.8465 186.737C1.12465 324.746 58.3519 476.87 183.667 526.514C308.982 576.158 454.931 504.524 509.653 366.515Z" stroke="url(#paint8_linear_0_294)" stroke-width="0.389831" stroke-miterlimit="10"/>
<path d="M319.778 547.707C383.498 538.438 417.447 409.316 395.607 259.305C373.767 109.294 304.406 -4.8 240.687 4.46881C176.968 13.7376 143.018 142.859 164.859 292.871C186.699 442.881 256.059 556.975 319.778 547.707Z" stroke="url(#paint9_linear_0_294)" stroke-width="0.389831" stroke-miterlimit="10"/>
<path d="M500.325 278.913C500.325 424.211 401.792 541.982 280.235 541.982C158.676 541.982 60.1602 424.211 60.1602 278.913C60.1602 133.614 144.273 11.5907 265.815 11.5907C387.357 11.5907 500.325 133.614 500.325 278.913Z" stroke="url(#paint10_linear_0_294)" stroke-width="0.389831" stroke-miterlimit="10"/>
</g>
<g clip-path="url(#clip0_0_294)">
<g clip-path="url(#clip1_0_294)">
<g clip-path="url(#clip2_0_294)">
<path fill-rule="evenodd" clip-rule="evenodd" d="M126.335 201.16C130.702 197.674 133.331 191.444 133.331 182.988C133.331 163.897 119.928 140.681 103.394 131.135C94.691 126.111 86.8551 125.875 81.3851 129.563L81.3832 129.561L81.2535 129.653C81.127 129.741 81.0019 129.83 80.878 129.922L75.581 133.708L76.4343 135.091C74.5266 138.539 73.4569 143.026 73.4569 148.42C73.4569 167.511 86.8603 190.727 103.394 200.272C109.135 203.587 114.499 204.818 119.055 204.213L119.983 205.718L126.351 201.185L126.335 201.16Z" fill="#07091B"/>
<path d="M126.335 201.16L126.238 201.038L126.129 201.125L126.203 201.243L126.335 201.16ZM81.3846 129.564L81.2527 129.646L81.3382 129.783L81.4717 129.693L81.3846 129.564ZM81.3827 129.561L81.5147 129.478L81.4267 129.338L81.2922 129.434L81.3827 129.561ZM81.253 129.653L81.3415 129.782L81.3436 129.78L81.253 129.653ZM80.8775 129.922L80.9681 130.048L80.9701 130.047L80.8775 129.922ZM75.5806 133.708L75.49 133.581L75.3716 133.666L75.448 133.789L75.5806 133.708ZM76.4338 135.091L76.5701 135.167L76.6142 135.087L76.5664 135.01L76.4338 135.091ZM119.054 204.213L119.187 204.131L119.134 204.045L119.034 204.059L119.054 204.213ZM119.983 205.719L119.85 205.8L119.937 205.942L120.073 205.846L119.983 205.719ZM126.351 201.185L126.441 201.312L126.561 201.227L126.483 201.102L126.351 201.185ZM133.175 182.989C133.175 191.415 130.555 197.591 126.238 201.038L126.432 201.281C130.848 197.756 133.487 191.474 133.487 182.989H133.175ZM103.316 131.27C111.553 136.026 119.02 144.194 124.428 153.56C129.835 162.926 133.175 173.476 133.175 182.989H133.487C133.487 173.409 130.125 162.805 124.697 153.404C119.27 144.003 111.768 135.79 103.472 131.001L103.316 131.27ZM81.4717 129.693C86.8745 126.05 94.6424 126.263 103.316 131.27L103.472 131.001C94.7385 125.959 86.8348 125.701 81.2975 129.434L81.4717 129.693ZM81.5165 129.481L81.5147 129.478L81.2508 129.643L81.2527 129.646L81.5165 129.481ZM81.2922 129.434L81.1624 129.527L81.3436 129.78L81.4733 129.687L81.2922 129.434ZM80.9701 130.047C81.0927 129.956 81.2164 129.868 81.3415 129.782L81.1644 129.525C81.0367 129.613 80.9101 129.704 80.7849 129.796L80.9701 130.047ZM80.7869 129.795L75.49 133.581L75.6711 133.834L80.9681 130.048L80.7869 129.795ZM75.448 133.789L76.3012 135.173L76.5664 135.01L75.7131 133.626L75.448 133.789ZM73.6122 148.42C73.6122 143.046 74.678 138.586 76.5701 135.167L76.2976 135.016C74.3741 138.492 73.3007 143.007 73.3007 148.42H73.6122ZM103.472 200.138C95.2339 195.382 87.7673 187.214 82.3598 177.848C76.9522 168.482 73.6122 157.932 73.6122 148.42H73.3007C73.3007 157.999 76.6624 168.603 82.0899 178.004C87.5176 187.405 95.0196 195.618 103.316 200.408L103.472 200.138ZM119.034 204.059C114.521 204.658 109.192 203.441 103.472 200.138L103.316 200.408C109.077 203.734 114.475 204.978 119.075 204.367L119.034 204.059ZM118.922 204.295L119.85 205.8L120.115 205.637L119.187 204.131L118.922 204.295ZM120.073 205.846L126.441 201.312L126.261 201.059L119.892 205.591L120.073 205.846ZM126.483 201.102L126.467 201.077L126.203 201.243L126.219 201.268L126.483 201.102Z" fill="white"/>
<path d="M97.8843 204.199C114.418 213.744 127.822 206.006 127.822 186.914C127.822 167.823 114.418 144.607 97.8843 135.061C81.3504 125.516 67.9471 133.254 67.9471 152.346C67.9471 171.437 81.3504 194.653 97.8843 204.199Z" fill="#07091B" stroke="white" stroke-width="0.311525"/>
<g style="mix-blend-mode:overlay" filter="url(#filter0_i_0_294)">
<path d="M97.8857 197.898C110.81 205.36 121.287 199.311 121.287 184.387C121.287 169.463 110.81 151.316 97.8857 143.854C84.9614 136.393 74.4843 142.442 74.4843 157.365C74.4843 172.289 84.9614 190.436 97.8857 197.898Z" fill="#07091B" fill-opacity="0.2"/>
</g>
<path d="M97.8795 153.78L97.7186 154.318V172.643L97.8795 172.921L105.246 172.146L97.8795 153.78Z" fill="white"/>
<path d="M97.8799 153.78L90.5135 163.64L97.8799 172.921V164.027V153.78Z" fill="white"/>
<path d="M97.8777 174.531L97.787 174.607V181.134L97.8777 181.493L105.248 173.762L97.8777 174.531Z" fill="white"/>
<path d="M97.8799 181.491V174.531L90.5135 165.252L97.8799 181.491Z" fill="white"/>
<path d="M90.5135 163.64L97.8798 172.921V164.027L90.5135 163.64Z" fill="white"/>
<path d="M97.8838 197.898C110.808 205.36 121.285 199.311 121.285 184.387C121.285 169.463 110.808 151.316 97.8838 143.854C84.9595 136.393 74.4823 142.442 74.4823 157.365C74.4823 172.289 84.9595 190.436 97.8838 197.898Z" stroke="white" stroke-width="0.311525"/>
</g>
</g>
</g>
<g clip-path="url(#clip3_0_294)">
<g clip-path="url(#clip4_0_294)">
<g clip-path="url(#clip5_0_294)">
<path fill-rule="evenodd" clip-rule="evenodd" d="M543.333 262.159C547.7 258.673 550.33 252.444 550.33 243.988C550.33 224.896 536.926 201.681 520.392 192.135C511.689 187.11 503.853 186.875 498.383 190.563L498.381 190.56L498.252 190.653C498.125 190.74 498 190.83 497.876 190.921L492.579 194.707L493.432 196.091C491.525 199.539 490.455 204.026 490.455 209.419C490.455 228.511 503.858 251.726 520.392 261.272C526.133 264.587 531.497 265.817 536.053 265.212L536.981 266.718L543.35 262.185L543.333 262.159Z" fill="#07091B"/>
<path d="M543.335 262.159L543.238 262.038L543.129 262.125L543.203 262.242L543.335 262.159ZM498.385 190.563L498.253 190.646L498.338 190.782L498.472 190.692L498.385 190.563ZM498.383 190.56L498.515 190.478L498.427 190.337L498.292 190.434L498.383 190.56ZM498.253 190.653L498.342 190.781L498.344 190.78L498.253 190.653ZM497.878 190.921L497.968 191.048L497.97 191.047L497.878 190.921ZM492.581 194.707L492.49 194.581L492.372 194.665L492.448 194.789L492.581 194.707ZM493.434 196.091L493.57 196.167L493.614 196.087L493.567 196.009L493.434 196.091ZM536.054 265.212L536.187 265.131L536.134 265.045L536.034 265.059L536.054 265.212ZM536.983 266.718L536.85 266.8L536.937 266.941L537.073 266.845L536.983 266.718ZM543.351 262.185L543.441 262.312L543.561 262.227L543.483 262.102L543.351 262.185ZM550.175 243.988C550.175 252.415 547.555 258.591 543.238 262.038L543.432 262.281C547.848 258.756 550.487 252.474 550.487 243.988H550.175ZM520.316 192.27C528.554 197.026 536.02 205.194 541.428 214.56C546.835 223.926 550.175 234.476 550.175 243.988H550.487C550.487 234.409 547.125 223.805 541.698 214.404C536.27 205.003 528.768 196.79 520.472 192L520.316 192.27ZM498.472 190.692C503.875 187.049 511.643 187.263 520.316 192.27L520.472 192C511.739 186.958 503.835 186.7 498.298 190.434L498.472 190.692ZM498.517 190.48L498.515 190.478L498.251 190.643L498.253 190.646L498.517 190.48ZM498.292 190.434L498.163 190.526L498.344 190.78L498.473 190.687L498.292 190.434ZM497.97 191.047C498.093 190.956 498.217 190.868 498.342 190.781L498.165 190.525C498.037 190.613 497.91 190.704 497.785 190.796L497.97 191.047ZM497.787 190.795L492.49 194.581L492.671 194.834L497.968 191.048L497.787 190.795ZM492.448 194.789L493.301 196.173L493.567 196.009L492.713 194.626L492.448 194.789ZM490.612 209.419C490.612 204.046 491.678 199.586 493.57 196.167L493.298 196.016C491.374 199.492 490.301 204.006 490.301 209.419H490.612ZM520.472 261.138C512.234 256.381 504.767 248.214 499.36 238.848C493.952 229.482 490.612 218.932 490.612 209.419H490.301C490.301 218.999 493.662 229.603 499.09 239.004C504.518 248.404 512.02 256.617 520.316 261.407L520.472 261.138ZM536.034 265.059C531.521 265.657 526.192 264.44 520.472 261.138L520.316 261.407C526.077 264.734 531.476 265.978 536.075 265.367L536.034 265.059ZM535.922 265.295L536.85 266.8L537.115 266.637L536.187 265.131L535.922 265.295ZM537.073 266.845L543.441 262.312L543.261 262.059L536.892 266.591L537.073 266.845ZM543.483 262.102L543.467 262.077L543.203 262.242L543.219 262.268L543.483 262.102Z" fill="white"/>
<path d="M514.885 265.198C531.418 274.744 544.822 267.006 544.822 247.914C544.822 228.822 531.418 205.607 514.885 196.061C498.351 186.515 484.947 194.254 484.947 213.345C484.947 232.437 498.351 255.652 514.885 265.198Z" fill="#07091B" stroke="white" stroke-width="0.311525"/>
<g style="mix-blend-mode:overlay" filter="url(#filter1_i_0_294)">
<path d="M514.884 258.897C527.808 266.359 538.285 260.31 538.285 245.387C538.285 230.463 527.808 212.316 514.884 204.854C501.96 197.392 491.482 203.441 491.482 218.365C491.482 233.289 501.96 251.436 514.884 258.897Z" fill="#07091B" fill-opacity="0.2"/>
</g>
<path d="M514.885 225.758C516.675 226.791 518.126 226.64 518.126 225.418C518.126 224.197 516.675 222.37 514.885 221.336C513.094 220.302 511.643 220.454 511.643 221.675C511.643 222.896 513.094 224.724 514.885 225.758Z" fill="white"/>
<path d="M514.885 242.416C516.675 243.45 518.126 243.298 518.126 242.077C518.126 240.856 516.675 239.028 514.885 237.995C513.094 236.961 511.643 237.113 511.643 238.334C511.643 239.555 513.094 241.383 514.885 242.416Z" fill="white"/>
<path d="M510.365 226.21C511.26 224.908 511.255 222.936 510.352 221.804C509.45 220.672 507.993 220.809 507.097 222.11C506.202 223.412 506.208 225.384 507.11 226.516C508.013 227.648 509.47 227.511 510.365 226.21Z" fill="white"/>
<path d="M522.668 241.641C523.563 240.339 523.558 238.367 522.656 237.236C521.754 236.105 520.298 236.243 519.402 237.544C518.507 238.846 518.512 240.818 519.414 241.949C520.316 243.08 521.773 242.942 522.668 241.641Z" fill="white"/>
<path d="M510.354 236.717C511.256 236.627 511.262 234.661 510.367 232.326C509.472 229.991 508.015 228.171 507.112 228.261C506.21 228.351 506.204 230.317 507.099 232.652C507.995 234.987 509.452 236.807 510.354 236.717Z" fill="white"/>
<path d="M522.658 235.492C523.56 235.403 523.565 233.437 522.67 231.102C521.774 228.767 520.318 226.947 519.416 227.037C518.514 227.126 518.509 229.092 519.404 231.427C520.299 233.762 521.756 235.582 522.658 235.492Z" fill="white"/>
<path d="M514.884 258.898C527.808 266.359 538.285 260.31 538.285 245.387C538.285 230.463 527.808 212.316 514.884 204.854C501.96 197.392 491.482 203.441 491.482 218.365C491.482 233.289 501.96 251.436 514.884 258.898Z" stroke="white" stroke-width="0.311525"/>
</g>
</g>
</g>
<g clip-path="url(#clip6_0_294)">
<g clip-path="url(#clip7_0_294)">
<g clip-path="url(#clip8_0_294)">
<path fill-rule="evenodd" clip-rule="evenodd" d="M346.337 163.16C350.704 159.674 353.334 153.445 353.334 144.989C353.334 125.897 339.93 102.681 323.396 93.1356C314.693 88.1108 306.857 87.8752 301.387 91.5637L301.385 91.5608L301.256 91.6535C301.129 91.7408 301.004 91.8303 300.88 91.9219L295.583 95.7078L296.436 97.0916C294.529 100.539 293.459 105.027 293.459 110.42C293.459 129.512 306.862 152.727 323.396 162.273C329.137 165.587 334.501 166.818 339.057 166.213L339.985 167.719L346.353 163.185L346.337 163.16Z" fill="#07091B"/>
<path d="M346.337 163.16L346.239 163.038L346.131 163.125L346.205 163.243L346.337 163.16ZM301.386 91.5638L301.254 91.6466L301.34 91.7829L301.473 91.6929L301.386 91.5638ZM301.385 91.5608L301.516 91.478L301.429 91.338L301.294 91.4342L301.385 91.5608ZM301.255 91.6536L301.343 91.7818L301.345 91.7803L301.255 91.6536ZM300.879 91.922L300.97 92.0487L300.972 92.0472L300.879 91.922ZM295.582 95.7079L295.492 95.5812L295.373 95.6658L295.45 95.7897L295.582 95.7079ZM296.436 97.0917L296.572 97.1671L296.616 97.0875L296.568 97.01L296.436 97.0917ZM339.056 166.213L339.189 166.131L339.136 166.045L339.036 166.059L339.056 166.213ZM339.984 167.719L339.852 167.8L339.939 167.942L340.075 167.846L339.984 167.719ZM346.353 163.186L346.443 163.313L346.563 163.227L346.485 163.103L346.353 163.186ZM353.177 144.989C353.177 153.415 350.557 159.591 346.239 163.038L346.434 163.281C350.849 159.756 353.489 153.474 353.489 144.989H353.177ZM323.318 93.2706C331.555 98.0267 339.022 106.194 344.429 115.56C349.837 124.926 353.177 135.477 353.177 144.989H353.489C353.489 135.409 350.127 124.806 344.699 115.405C339.272 106.004 331.77 97.7906 323.473 93.0008L323.318 93.2706ZM301.473 91.6929C306.876 88.0498 314.644 88.263 323.318 93.2706L323.473 93.0008C314.74 87.9587 306.837 87.7008 301.299 91.4347L301.473 91.6929ZM301.518 91.481L301.516 91.478L301.253 91.6437L301.254 91.6466L301.518 91.481ZM301.294 91.4342L301.164 91.5269L301.345 91.7803L301.475 91.6876L301.294 91.4342ZM300.972 92.0472C301.094 91.9566 301.218 91.8681 301.343 91.7818L301.166 91.5255C301.038 91.6137 300.912 91.7041 300.787 91.7967L300.972 92.0472ZM300.789 91.7952L295.492 95.5812L295.673 95.8346L300.97 92.0487L300.789 91.7952ZM295.45 95.7897L296.303 97.1735L296.568 97.01L295.715 95.6261L295.45 95.7897ZM293.614 110.42C293.614 105.046 294.68 100.586 296.572 97.1671L296.299 97.0163C294.376 100.492 293.302 105.007 293.302 110.42H293.614ZM323.473 162.138C315.236 157.382 307.769 149.214 302.362 139.848C296.954 130.482 293.614 119.932 293.614 110.42H293.302C293.302 120 296.664 130.603 302.092 140.004C307.519 149.405 315.021 157.618 323.318 162.408L323.473 162.138ZM339.036 166.059C334.523 166.658 329.194 165.441 323.473 162.138L323.318 162.408C329.079 165.734 334.477 166.978 339.077 166.367L339.036 166.059ZM338.923 166.295L339.852 167.8L340.117 167.637L339.189 166.131L338.923 166.295ZM340.075 167.846L346.443 163.313L346.262 163.059L339.894 167.592L340.075 167.846ZM346.485 163.103L346.469 163.077L346.205 163.243L346.221 163.268L346.485 163.103Z" fill="white"/>
<path d="M317.885 166.199C334.418 175.745 347.822 168.006 347.822 148.914C347.822 129.823 334.418 106.607 317.885 97.0615C301.351 87.5157 287.947 95.2541 287.947 114.346C287.947 133.437 301.351 156.653 317.885 166.199Z" fill="#07091B" stroke="white" stroke-width="0.311525"/>
<g style="mix-blend-mode:overlay" filter="url(#filter2_i_0_294)">
<path d="M317.886 159.898C330.81 167.36 341.287 161.311 341.287 146.387C341.287 131.463 330.81 113.316 317.886 105.854C304.962 98.3925 294.484 104.442 294.484 119.365C294.484 134.289 304.962 152.436 317.886 159.898Z" fill="#07091B" fill-opacity="0.2"/>
</g>
<path fill-rule="evenodd" clip-rule="evenodd" d="M327.622 138.497C327.622 144.706 323.263 147.222 317.886 144.118C312.509 141.014 308.15 133.464 308.15 127.255C308.15 121.046 312.509 118.53 317.886 121.634C323.263 124.739 327.622 132.288 327.622 138.497ZM315.127 135.757L313.238 134.666C312.841 134.437 312.645 134.324 312.525 134.166C312.396 133.995 312.317 133.789 312.308 133.607C312.3 133.44 312.398 133.298 312.595 133.013L317.26 126.211C317.458 125.923 317.559 125.779 317.686 125.778C317.822 125.776 317.984 125.87 318.121 126.029C318.248 126.177 318.348 126.437 318.547 126.954L319.506 129.441L319.511 129.454C319.725 130.01 319.834 130.292 319.881 130.55C319.934 130.832 319.934 131.097 319.881 131.318C319.833 131.522 319.726 131.681 319.508 131.994L317.057 135.582L317.051 135.591C316.835 135.902 316.726 136.06 316.574 136.139C316.409 136.227 316.211 136.244 315.993 136.193C315.795 136.142 315.572 136.014 315.127 135.757ZM319.899 138.512L322.606 140.075C323.006 140.306 323.206 140.422 323.326 140.4C323.455 140.377 323.537 140.261 323.544 140.089C323.551 139.935 323.455 139.689 323.267 139.206C323.26 139.189 323.254 139.172 323.247 139.155L321.891 135.694L321.876 135.654C321.685 135.172 321.589 134.929 321.465 134.785C321.329 134.626 321.169 134.534 321.032 134.535C320.908 134.538 320.808 134.676 320.609 134.956L319.258 136.855L319.253 136.861C319.055 137.142 318.957 137.281 318.964 137.447C318.973 137.63 319.052 137.838 319.181 138.009C319.298 138.165 319.499 138.281 319.899 138.512Z" fill="white"/>
<path d="M317.886 159.898C330.81 167.36 341.287 161.311 341.287 146.387C341.287 131.463 330.81 113.316 317.886 105.854C304.962 98.3926 294.485 104.442 294.485 119.365C294.485 134.289 304.962 152.436 317.886 159.898Z" stroke="white" stroke-width="0.311525"/>
</g>
</g>
</g>
<g clip-path="url(#clip9_0_294)">
<g clip-path="url(#clip10_0_294)">
<g clip-path="url(#clip11_0_294)">
<path fill-rule="evenodd" clip-rule="evenodd" d="M456.335 333.16C460.702 329.674 463.332 323.445 463.332 314.989C463.332 295.897 449.928 272.681 433.394 263.136C424.691 258.111 416.855 257.875 411.385 261.564L411.383 261.561L411.254 261.654C411.127 261.741 411.002 261.83 410.878 261.922L405.581 265.708L406.434 267.092C404.527 270.539 403.457 275.027 403.457 280.42C403.457 299.512 416.86 322.727 433.394 332.273C439.135 335.587 444.499 336.818 449.055 336.213L449.983 337.719L456.351 333.185L456.335 333.16Z" fill="#07091B"/>
<path d="M456.335 333.16L456.238 333.038L456.129 333.125L456.203 333.243L456.335 333.16ZM411.385 261.564L411.253 261.647L411.338 261.783L411.472 261.693L411.385 261.564ZM411.383 261.561L411.515 261.478L411.427 261.338L411.292 261.434L411.383 261.561ZM411.253 261.653L411.342 261.782L411.344 261.78L411.253 261.653ZM410.878 261.922L410.968 262.049L410.97 262.047L410.878 261.922ZM405.581 265.708L405.49 265.581L405.372 265.666L405.448 265.79L405.581 265.708ZM406.434 267.092L406.57 267.167L406.614 267.087L406.567 267.01L406.434 267.092ZM449.054 336.213L449.187 336.131L449.134 336.045L449.034 336.059L449.054 336.213ZM449.983 337.719L449.85 337.8L449.937 337.942L450.073 337.846L449.983 337.719ZM456.351 333.185L456.441 333.312L456.561 333.227L456.483 333.103L456.351 333.185ZM463.175 314.989C463.175 323.415 460.555 329.591 456.238 333.038L456.432 333.281C460.848 329.756 463.487 323.474 463.487 314.989H463.175ZM433.316 263.27C441.554 268.027 449.02 276.194 454.428 285.56C459.835 294.926 463.175 305.476 463.175 314.989H463.487C463.487 305.409 460.125 294.805 454.698 285.404C449.27 276.003 441.768 267.791 433.472 263.001L433.316 263.27ZM411.472 261.693C416.875 258.05 424.643 258.263 433.316 263.27L433.472 263.001C424.739 257.959 416.835 257.701 411.298 261.435L411.472 261.693ZM411.517 261.481L411.515 261.478L411.251 261.644L411.253 261.647L411.517 261.481ZM411.292 261.434L411.163 261.527L411.344 261.78L411.473 261.687L411.292 261.434ZM410.97 262.047C411.093 261.956 411.217 261.868 411.342 261.782L411.165 261.525C411.037 261.614 410.91 261.704 410.785 261.797L410.97 262.047ZM410.787 261.795L405.49 265.581L405.671 265.834L410.968 262.049L410.787 261.795ZM405.448 265.79L406.301 267.173L406.567 267.01L405.713 265.626L405.448 265.79ZM403.612 280.42C403.612 275.046 404.678 270.586 406.57 267.167L406.298 267.016C404.374 270.492 403.301 275.007 403.301 280.42H403.612ZM433.472 332.138C425.234 327.382 417.767 319.214 412.36 309.848C406.952 300.482 403.612 289.932 403.612 280.42H403.301C403.301 289.999 406.662 300.603 412.09 310.004C417.518 319.405 425.02 327.618 433.316 332.408L433.472 332.138ZM449.034 336.059C444.521 336.658 439.192 335.441 433.472 332.138L433.316 332.408C439.077 335.734 444.476 336.978 449.075 336.367L449.034 336.059ZM448.922 336.295L449.85 337.8L450.115 337.637L449.187 336.131L448.922 336.295ZM450.073 337.846L456.441 333.312L456.261 333.059L449.892 337.592L450.073 337.846ZM456.483 333.103L456.467 333.077L456.203 333.243L456.219 333.268L456.483 333.103Z" fill="white"/>
<path d="M427.885 336.199C444.418 345.744 457.822 338.006 457.822 318.914C457.822 299.823 444.418 276.607 427.885 267.061C411.351 257.516 397.947 265.254 397.947 284.346C397.947 303.437 411.351 326.653 427.885 336.199Z" fill="#07091B" stroke="white" stroke-width="0.311525"/>
<g style="mix-blend-mode:overlay" filter="url(#filter3_i_0_294)">
<path d="M427.884 329.898C440.808 337.36 451.285 331.311 451.285 316.387C451.285 301.463 440.808 283.316 427.884 275.855C414.959 268.393 404.482 274.442 404.482 289.365C404.482 304.289 414.959 322.436 427.884 329.898Z" fill="#07091B" fill-opacity="0.2"/>
</g>
<path d="M424.033 299.705L427.884 297.481L431.737 304.155L433.978 302.861L427.884 292.306L421.792 295.824L424.033 299.705ZM417.969 298.03L420.21 296.737L422.45 300.618L420.21 301.912L417.969 298.03ZM424.033 303.359L427.884 310.029L431.737 307.805L433.979 311.685L433.978 311.686L427.884 315.204L421.792 304.653L421.789 304.647L424.033 303.359ZM433.318 306.893L435.558 305.6L437.799 309.481L435.558 310.775L433.318 306.893Z" fill="white"/>
<path d="M430.215 305.099L430.216 305.1L427.884 301.061L426.16 302.056L425.962 302.17L425.554 302.406L425.551 302.408L425.554 302.414L427.884 306.449L430.216 305.103L430.217 305.102L430.215 305.099Z" fill="white"/>
<path d="M427.884 329.898C440.808 337.36 451.285 331.311 451.285 316.387C451.285 301.463 440.808 283.316 427.884 275.855C414.96 268.393 404.482 274.442 404.482 289.365C404.482 304.289 414.96 322.436 427.884 329.898Z" stroke="white" stroke-width="0.311525"/>
</g>
</g>
</g>
<g clip-path="url(#clip12_0_294)">
<g clip-path="url(#clip13_0_294)">
<g clip-path="url(#clip14_0_294)">
<path fill-rule="evenodd" clip-rule="evenodd" d="M187.336 415.16C191.702 411.674 194.332 405.445 194.332 396.989C194.332 377.897 180.928 354.681 164.395 345.136C155.691 340.111 147.855 339.875 142.385 343.564L142.383 343.561L142.254 343.654C142.127 343.741 142.002 343.83 141.878 343.922L136.581 347.708L137.435 349.092C135.527 352.539 134.457 357.027 134.457 362.42C134.457 381.512 147.861 404.727 164.395 414.273C170.135 417.587 175.499 418.818 180.055 418.213L180.983 419.719L187.352 415.185L187.336 415.16Z" fill="#07091B"/>
<path d="M187.335 415.159L187.238 415.038L187.129 415.125L187.203 415.242L187.335 415.159ZM142.385 343.563L142.253 343.646L142.338 343.782L142.472 343.692L142.385 343.563ZM142.383 343.56L142.515 343.478L142.427 343.337L142.292 343.434L142.383 343.56ZM142.253 343.653L142.342 343.781L142.344 343.78L142.253 343.653ZM141.878 343.921L141.968 344.048L141.97 344.047L141.878 343.921ZM136.581 347.707L136.49 347.581L136.372 347.665L136.448 347.789L136.581 347.707ZM137.434 349.091L137.57 349.167L137.614 349.087L137.567 349.009L137.434 349.091ZM180.054 418.212L180.187 418.131L180.134 418.045L180.034 418.059L180.054 418.212ZM180.983 419.718L180.85 419.8L180.937 419.941L181.073 419.845L180.983 419.718ZM187.351 415.185L187.441 415.312L187.561 415.227L187.483 415.102L187.351 415.185ZM194.175 396.988C194.175 405.415 191.555 411.591 187.238 415.038L187.432 415.281C191.848 411.756 194.487 405.474 194.487 396.988H194.175ZM164.316 345.27C172.554 350.026 180.02 358.194 185.428 367.56C190.835 376.926 194.175 387.476 194.175 396.988H194.487C194.487 387.409 191.125 376.805 185.698 367.404C180.27 358.003 172.768 349.79 164.472 345L164.316 345.27ZM142.472 343.692C147.875 340.049 155.643 340.263 164.316 345.27L164.472 345C155.739 339.958 147.835 339.7 142.298 343.434L142.472 343.692ZM142.517 343.48L142.515 343.478L142.251 343.643L142.253 343.646L142.517 343.48ZM142.292 343.434L142.163 343.526L142.344 343.78L142.473 343.687L142.292 343.434ZM141.97 344.047C142.093 343.956 142.217 343.868 142.342 343.781L142.165 343.525C142.037 343.613 141.91 343.704 141.785 343.796L141.97 344.047ZM141.787 343.795L136.49 347.581L136.671 347.834L141.968 344.048L141.787 343.795ZM136.448 347.789L137.301 349.173L137.567 349.009L136.713 347.626L136.448 347.789ZM134.612 362.419C134.612 357.046 135.678 352.586 137.57 349.167L137.298 349.016C135.374 352.492 134.301 357.006 134.301 362.419H134.612ZM164.472 414.138C156.234 409.381 148.767 401.214 143.36 391.848C137.952 382.482 134.612 371.932 134.612 362.419H134.301C134.301 371.999 137.662 382.603 143.09 392.004C148.518 401.404 156.02 409.617 164.316 414.407L164.472 414.138ZM180.034 418.059C175.521 418.657 170.192 417.44 164.472 414.138L164.316 414.407C170.077 417.734 175.476 418.978 180.075 418.367L180.034 418.059ZM179.922 418.295L180.85 419.8L181.115 419.637L180.187 418.131L179.922 418.295ZM181.073 419.845L187.441 415.312L187.261 415.059L180.892 419.591L181.073 419.845ZM187.483 415.102L187.467 415.077L187.203 415.242L187.219 415.268L187.483 415.102Z" fill="white"/>
<path d="M158.885 418.199C175.418 427.745 188.822 420.006 188.822 400.914C188.822 381.823 175.418 358.607 158.885 349.062C142.351 339.516 128.947 347.254 128.947 366.346C128.947 385.438 142.351 408.653 158.885 418.199Z" fill="#07091B" stroke="white" stroke-width="0.311525"/>
<g style="mix-blend-mode:overlay" filter="url(#filter4_i_0_294)">
<path d="M158.884 411.897C171.808 419.359 182.286 413.31 182.286 398.386C182.286 383.463 171.808 365.316 158.884 357.854C145.96 350.392 135.483 356.441 135.483 371.365C135.483 386.288 145.96 404.435 158.884 411.897Z" fill="#07091B" fill-opacity="0.2"/>
</g>
<path d="M152.617 385.618C152.729 385.555 152.883 385.569 153.046 385.663L167.864 394.219C168.135 394.375 168.27 394.826 168.079 394.934L165.152 396.583C165.04 396.646 164.886 396.631 164.722 396.537L149.904 387.982C149.633 387.825 149.498 387.374 149.689 387.267L152.617 385.618Z" fill="white"/>
<path d="M152.617 373.169C152.733 373.109 152.887 373.123 153.046 373.215L167.864 381.77C168.135 381.927 168.27 382.378 168.079 382.485L165.152 384.134C165.04 384.197 164.886 384.183 164.722 384.089L149.904 375.533C149.633 375.377 149.498 374.926 149.689 374.818L152.617 373.169Z" fill="white"/>
<path d="M165.152 386.599C165.04 386.407 164.886 386.243 164.722 386.149L149.904 377.594C149.633 377.437 149.498 377.732 149.689 378.061L152.617 383.09C152.729 383.282 152.883 383.446 153.046 383.54L167.864 392.095C168.135 392.252 168.27 391.957 168.079 391.628L165.152 386.599Z" fill="white"/>
<path d="M158.884 411.898C171.808 419.36 182.285 413.311 182.285 398.387C182.285 383.463 171.808 365.316 158.884 357.854C145.96 350.393 135.482 356.442 135.482 371.365C135.482 386.289 145.96 404.436 158.884 411.898Z" stroke="white" stroke-width="0.311525"/>
</g>
</g>
</g>
<g clip-path="url(#clip15_0_294)">
<g clip-path="url(#clip16_0_294)">
<g clip-path="url(#clip17_0_294)">
<path fill-rule="evenodd" clip-rule="evenodd" d="M59.3356 327.16C63.7019 323.674 66.3318 317.445 66.3318 308.989C66.3318 289.897 52.9284 266.681 36.3945 257.136C27.6913 252.111 19.8554 251.875 14.3854 255.564L14.3835 255.561L14.2538 255.654C14.1274 255.741 14.0022 255.83 13.8783 255.922L8.58134 259.708L9.43461 261.092C7.5269 264.539 6.45721 269.027 6.45721 274.42C6.45721 293.512 19.8606 316.727 36.3945 326.273C42.1355 329.587 47.499 330.818 52.055 330.213L52.9834 331.719L59.3517 327.185L59.3356 327.16Z" fill="#07091B"/>
<path d="M59.3349 327.159L59.2377 327.038L59.1291 327.125L59.203 327.242L59.3349 327.159ZM14.3847 255.563L14.2528 255.646L14.3383 255.782L14.4718 255.692L14.3847 255.563ZM14.3828 255.56L14.5148 255.478L14.4268 255.337L14.2923 255.434L14.3828 255.56ZM14.2531 255.653L14.3416 255.781L14.3437 255.78L14.2531 255.653ZM13.8777 255.921L13.9682 256.048L13.9702 256.047L13.8777 255.921ZM8.58067 259.707L8.49014 259.581L8.37177 259.665L8.44809 259.789L8.58067 259.707ZM9.43394 261.091L9.57026 261.167L9.61431 261.087L9.56652 261.009L9.43394 261.091ZM52.0544 330.212L52.187 330.131L52.1339 330.045L52.0339 330.059L52.0544 330.212ZM52.9827 331.718L52.8501 331.8L52.9374 331.941L53.073 331.845L52.9827 331.718ZM59.351 327.185L59.4414 327.312L59.5611 327.227L59.483 327.102L59.351 327.185ZM66.1753 308.988C66.1753 317.415 63.5554 323.591 59.2377 327.038L59.4321 327.281C63.8476 323.756 66.4869 317.474 66.4869 308.988H66.1753ZM36.316 257.27C44.5536 262.026 52.0202 270.194 57.4278 279.56C62.8352 288.926 66.1753 299.476 66.1753 308.988H66.4869C66.4869 299.409 63.1249 288.805 57.6976 279.404C52.2699 270.003 44.7679 261.79 36.4717 257L36.316 257.27ZM14.4718 255.692C19.8746 252.049 27.6425 252.263 36.316 257.27L36.4717 257C27.7386 251.958 19.8349 251.7 14.2976 255.434L14.4718 255.692ZM14.5166 255.48L14.5148 255.478L14.2509 255.643L14.2528 255.646L14.5166 255.48ZM14.2923 255.434L14.1625 255.526L14.3437 255.78L14.4734 255.687L14.2923 255.434ZM13.9702 256.047C14.0928 255.956 14.2165 255.868 14.3416 255.781L14.1646 255.525C14.0368 255.613 13.9102 255.704 13.7851 255.796L13.9702 256.047ZM13.7871 255.795L8.49014 259.581L8.67127 259.834L13.9682 256.048L13.7871 255.795ZM8.44809 259.789L9.30135 261.173L9.56652 261.009L8.71326 259.626L8.44809 259.789ZM6.61234 274.419C6.61234 269.046 7.67812 264.586 9.57026 261.167L9.29768 261.016C7.37426 264.492 6.30078 269.006 6.30078 274.419H6.61234ZM36.4717 326.138C28.234 321.381 20.7674 313.214 15.3599 303.848C9.95232 294.482 6.61234 283.932 6.61234 274.419H6.30078C6.30078 283.999 9.66247 294.603 15.09 304.004C20.5177 313.404 28.0197 321.617 36.316 326.407L36.4717 326.138ZM52.0339 330.059C47.5211 330.657 42.1921 329.44 36.4717 326.138L36.316 326.407C42.0774 329.734 47.4756 330.978 52.0749 330.367L52.0339 330.059ZM51.9218 330.295L52.8501 331.8L53.1153 331.637L52.187 330.131L51.9218 330.295ZM53.073 331.845L59.4414 327.312L59.2607 327.059L52.8924 331.591L53.073 331.845ZM59.483 327.102L59.4669 327.077L59.203 327.242L59.2191 327.268L59.483 327.102Z" fill="white"/>
<path d="M30.8845 330.199C47.4184 339.745 60.8218 332.006 60.8218 312.914C60.8218 293.823 47.4184 270.607 30.8845 261.062C14.3506 251.516 0.947265 259.254 0.947265 278.346C0.947264 297.438 14.3506 320.653 30.8845 330.199Z" fill="#07091B" stroke="white" stroke-width="0.311525"/>
<g style="mix-blend-mode:overlay" filter="url(#filter5_i_0_294)">
<path d="M30.8841 323.897C43.8083 331.359 54.2855 325.31 54.2855 310.386C54.2855 295.463 43.8083 277.316 30.8841 269.854C17.9598 262.392 7.4826 268.441 7.4826 283.365C7.4826 298.288 17.9598 316.435 30.8841 323.897Z" fill="#07091B" fill-opacity="0.2"/>
</g>
<path d="M30.884 323.898C43.8082 331.36 54.2854 325.311 54.2854 310.387C54.2854 295.463 43.8082 277.316 30.884 269.854C17.9597 262.393 7.48248 268.442 7.48248 283.365C7.48248 298.289 17.9597 316.436 30.884 323.898Z" stroke="white" stroke-width="0.311525"/>
</g>
</g>
</g>
<path d="M40.2771 298.367C40.652 295.672 38.7458 292.998 36.1389 290.437L36.9846 286.984L34.9203 285.184L34.0969 288.547C33.5543 288.074 32.9969 287.601 32.4431 287.132L33.272 283.748L31.2088 281.949L30.3631 285.401C29.9137 285.02 29.4729 284.647 29.0447 284.273L29.0472 284.263L26.2001 281.78L25.651 284.025C25.651 284.025 27.1826 285.324 27.1502 285.331C27.9862 286.06 28.1377 286.792 28.1124 287.287L27.1492 291.222C27.2069 291.272 27.2814 291.341 27.3635 291.426C27.2951 291.367 27.2216 291.302 27.1456 291.237L25.7958 296.748C25.6933 296.984 25.434 297.276 24.8496 296.768C24.8702 296.815 23.3491 295.46 23.3491 295.46L22.3242 297.612L25.0107 299.954C25.5105 300.39 26 300.828 26.4823 301.252L25.628 304.745L27.6898 306.543L28.536 303.087C29.0994 303.593 29.6461 304.075 30.1812 304.541L29.3381 307.98L31.4023 309.78L32.2566 306.294C35.7771 309.116 38.4241 310.343 39.5383 307.287C40.4362 304.827 39.4937 302.559 37.6413 300.36C38.9901 300.782 40.006 300.341 40.2771 298.367ZM35.5608 303.317C34.9228 305.929 30.6063 301.806 29.2068 300.588L30.3408 295.96C31.7398 297.181 36.2276 300.595 35.5608 303.317ZM36.1992 295.952C35.617 298.326 32.0246 294.858 30.8592 293.842L31.8867 289.645C33.0521 290.661 36.8052 293.474 36.1992 295.952Z" fill="white"/>
<g style="mix-blend-mode:lighten" filter="url(#filter6_f_0_294)">
<path fill-rule="evenodd" clip-rule="evenodd" d="M341.074 378.478C353.993 368.164 361.773 349.735 361.773 324.716C361.773 268.23 322.118 199.545 273.2 171.302C247.45 156.435 224.267 155.739 208.083 166.652L208.077 166.643L207.693 166.918C207.319 167.176 206.95 167.44 206.584 167.71L190.911 178.912L193.436 183.006C187.791 193.206 184.627 206.483 184.627 222.44C184.627 278.925 224.282 347.611 273.2 375.854C290.186 385.66 306.054 389.301 319.533 387.511L322.28 391.966L341.122 378.554L341.074 378.478Z" fill="url(#paint11_linear_0_294)"/>
</g>
<path fill-rule="evenodd" clip-rule="evenodd" d="M341.074 378.478C353.993 368.164 361.773 349.735 361.773 324.716C361.773 268.23 322.118 199.545 273.2 171.302C247.45 156.435 224.267 155.739 208.083 166.652L208.077 166.643L207.693 166.918C207.319 167.176 206.95 167.44 206.584 167.71L190.911 178.912L193.436 183.006C187.791 193.206 184.627 206.483 184.627 222.44C184.627 278.925 224.282 347.611 273.2 375.854C290.186 385.66 306.054 389.301 319.533 387.511L322.28 391.966L341.122 378.554L341.074 378.478Z" fill="url(#paint12_linear_0_294)"/>
<path d="M256.897 387.468C305.815 415.711 345.47 392.816 345.47 336.33C345.47 279.845 305.815 211.16 256.897 182.917C207.98 154.675 168.324 177.57 168.324 234.055C168.324 290.54 207.98 359.226 256.897 387.468Z" fill="url(#paint13_linear_0_294)"/>
<g style="mix-blend-mode:overlay" filter="url(#filter7_i_0_294)">
<path d="M256.898 368.826C295.136 390.903 326.134 373.006 326.134 328.853C326.134 284.699 295.136 231.009 256.898 208.932C218.659 186.855 187.661 204.752 187.661 248.905C187.661 293.059 218.659 346.749 256.898 368.826Z" fill="#07091B" fill-opacity="0.1"/>
</g>
<path d="M256.898 368.826C295.136 390.903 326.134 373.006 326.134 328.853C326.134 284.699 295.136 231.009 256.898 208.932C218.66 186.855 187.662 204.752 187.662 248.905C187.662 293.059 218.66 346.749 256.898 368.826Z" stroke="#696969" stroke-width="0.389831"/>
<g filter="url(#filter8_d_0_294)">
<path d="M269.422 292.568C282.583 288.369 279.638 257.472 278.599 256.072C276.001 252.772 264.831 259.321 261.455 277.769C257.904 273.919 253.834 271.47 250.111 271.219C246.214 245.172 233.138 226.523 232.618 230.223C231.147 240.272 231.58 261.12 242.145 276.719L238.941 284.068C230.542 289.117 236.171 310.065 249.506 314.865C253.923 321.115 257.646 323.365 262.149 322.165C275.398 332.714 281.112 318.316 272.712 303.567L269.422 292.568ZM248.9 295.917C248.813 295.867 248.813 295.867 248.726 295.817C248.293 295.567 247.947 295.067 247.86 294.517C247.254 291.167 245.436 289.418 243.964 288.868C243.531 288.718 243.011 288.018 242.925 287.468C242.838 286.918 243.184 286.518 243.617 286.668C245.955 287.518 248.726 290.518 249.506 295.067C249.679 295.667 249.419 296.017 248.9 295.917ZM259.291 316.215L255.827 314.216L252.364 312.216C251.844 311.916 251.498 311.316 251.498 310.716C251.498 310.116 251.844 309.916 252.364 310.216L254.961 311.716L254.961 308.516L252.45 305.666C252.017 305.216 251.844 304.516 252.017 304.116C252.19 303.716 252.71 303.816 253.143 304.266L255.741 307.266L258.338 307.266C258.771 307.216 259.291 307.716 259.464 308.316C259.637 308.916 259.551 309.466 259.118 309.416L256.693 309.516L256.693 312.716L259.291 314.216C259.811 314.516 260.157 315.116 260.157 315.716C260.157 316.315 259.724 316.465 259.291 316.215ZM267.603 302.517C266.218 301.417 264.313 301.017 263.707 303.667C263.62 304.117 263.274 304.217 262.841 303.967C262.754 303.917 262.754 303.917 262.668 303.867C262.235 303.517 261.888 302.717 261.975 302.267C262.754 298.617 265.525 298.917 267.863 300.667C268.296 301.017 268.643 301.717 268.556 302.267C268.556 302.767 268.123 302.917 267.603 302.517Z" fill="white"/>
</g>
<defs>
<filter id="filter0_i_0_294" x="74.4843" y="140.658" width="46.8029" height="62.9279" filterUnits="userSpaceOnUse" color-interpolation-filters="sRGB">
<feFlood flood-opacity="0" result="BackgroundImageFix"/>
<feBlend mode="normal" in="SourceGraphic" in2="BackgroundImageFix" result="shape"/>
<feColorMatrix in="SourceAlpha" type="matrix" values="0 0 0 0 0 0 0 0 0 0 0 0 0 0 0 0 0 0 127 0" result="hardAlpha"/>
<feOffset dy="2.4922"/>
<feGaussianBlur stdDeviation="1.2461"/>
<feComposite in2="hardAlpha" operator="arithmetic" k2="-1" k3="1"/>
<feColorMatrix type="matrix" values="0 0 0 0 0 0 0 0 0 0 0 0 0 0 0 0 0 0 0.25 0"/>
<feBlend mode="normal" in2="shape" result="effect1_innerShadow_0_294"/>
</filter>
<filter id="filter1_i_0_294" x="491.482" y="201.658" width="46.803" height="62.9279" filterUnits="userSpaceOnUse" color-interpolation-filters="sRGB">
<feFlood flood-opacity="0" result="BackgroundImageFix"/>
<feBlend mode="normal" in="SourceGraphic" in2="BackgroundImageFix" result="shape"/>
<feColorMatrix in="SourceAlpha" type="matrix" values="0 0 0 0 0 0 0 0 0 0 0 0 0 0 0 0 0 0 127 0" result="hardAlpha"/>
<feOffset dy="2.4922"/>
<feGaussianBlur stdDeviation="1.2461"/>
<feComposite in2="hardAlpha" operator="arithmetic" k2="-1" k3="1"/>
<feColorMatrix type="matrix" values="0 0 0 0 0 0 0 0 0 0 0 0 0 0 0 0 0 0 0.25 0"/>
<feBlend mode="normal" in2="shape" result="effect1_innerShadow_0_294"/>
</filter>
<filter id="filter2_i_0_294" x="294.484" y="102.658" width="46.8029" height="62.9279" filterUnits="userSpaceOnUse" color-interpolation-filters="sRGB">
<feFlood flood-opacity="0" result="BackgroundImageFix"/>
<feBlend mode="normal" in="SourceGraphic" in2="BackgroundImageFix" result="shape"/>
<feColorMatrix in="SourceAlpha" type="matrix" values="0 0 0 0 0 0 0 0 0 0 0 0 0 0 0 0 0 0 127 0" result="hardAlpha"/>
<feOffset dy="2.4922"/>
<feGaussianBlur stdDeviation="1.2461"/>
<feComposite in2="hardAlpha" operator="arithmetic" k2="-1" k3="1"/>
<feColorMatrix type="matrix" values="0 0 0 0 0 0 0 0 0 0 0 0 0 0 0 0 0 0 0.25 0"/>
<feBlend mode="normal" in2="shape" result="effect1_innerShadow_0_294"/>
</filter>
<filter id="filter3_i_0_294" x="404.482" y="272.658" width="46.8029" height="62.9279" filterUnits="userSpaceOnUse" color-interpolation-filters="sRGB">
<feFlood flood-opacity="0" result="BackgroundImageFix"/>
<feBlend mode="normal" in="SourceGraphic" in2="BackgroundImageFix" result="shape"/>
<feColorMatrix in="SourceAlpha" type="matrix" values="0 0 0 0 0 0 0 0 0 0 0 0 0 0 0 0 0 0 127 0" result="hardAlpha"/>
<feOffset dy="2.4922"/>
<feGaussianBlur stdDeviation="1.2461"/>
<feComposite in2="hardAlpha" operator="arithmetic" k2="-1" k3="1"/>
<feColorMatrix type="matrix" values="0 0 0 0 0 0 0 0 0 0 0 0 0 0 0 0 0 0 0.25 0"/>
<feBlend mode="normal" in2="shape" result="effect1_innerShadow_0_294"/>
</filter>
<filter id="filter4_i_0_294" x="135.483" y="354.658" width="46.8029" height="62.9279" filterUnits="userSpaceOnUse" color-interpolation-filters="sRGB">
<feFlood flood-opacity="0" result="BackgroundImageFix"/>
<feBlend mode="normal" in="SourceGraphic" in2="BackgroundImageFix" result="shape"/>
<feColorMatrix in="SourceAlpha" type="matrix" values="0 0 0 0 0 0 0 0 0 0 0 0 0 0 0 0 0 0 127 0" result="hardAlpha"/>
<feOffset dy="2.4922"/>
<feGaussianBlur stdDeviation="1.2461"/>
<feComposite in2="hardAlpha" operator="arithmetic" k2="-1" k3="1"/>
<feColorMatrix type="matrix" values="0 0 0 0 0 0 0 0 0 0 0 0 0 0 0 0 0 0 0.25 0"/>
<feBlend mode="normal" in2="shape" result="effect1_innerShadow_0_294"/>
</filter>
<filter id="filter5_i_0_294" x="7.4826" y="266.658" width="46.8029" height="62.9279" filterUnits="userSpaceOnUse" color-interpolation-filters="sRGB">
<feFlood flood-opacity="0" result="BackgroundImageFix"/>
<feBlend mode="normal" in="SourceGraphic" in2="BackgroundImageFix" result="shape"/>
<feColorMatrix in="SourceAlpha" type="matrix" values="0 0 0 0 0 0 0 0 0 0 0 0 0 0 0 0 0 0 127 0" result="hardAlpha"/>
<feOffset dy="2.4922"/>
<feGaussianBlur stdDeviation="1.2461"/>
<feComposite in2="hardAlpha" operator="arithmetic" k2="-1" k3="1"/>
<feColorMatrix type="matrix" values="0 0 0 0 0 0 0 0 0 0 0 0 0 0 0 0 0 0 0.25 0"/>
<feBlend mode="normal" in2="shape" result="effect1_innerShadow_0_294"/>
</filter>
<filter id="filter6_f_0_294" x="137.847" y="112.425" width="270.706" height="326.32" filterUnits="userSpaceOnUse" color-interpolation-filters="sRGB">
<feFlood flood-opacity="0" result="BackgroundImageFix"/>
<feBlend mode="normal" in="SourceGraphic" in2="BackgroundImageFix" result="shape"/>
<feGaussianBlur stdDeviation="23.3898" result="effect1_foregroundBlur_0_294"/>
</filter>
<filter id="filter7_i_0_294" x="187.661" y="199.476" width="138.473" height="181.925" filterUnits="userSpaceOnUse" color-interpolation-filters="sRGB">
<feFlood flood-opacity="0" result="BackgroundImageFix"/>
<feBlend mode="normal" in="SourceGraphic" in2="BackgroundImageFix" result="shape"/>
<feColorMatrix in="SourceAlpha" type="matrix" values="0 0 0 0 0 0 0 0 0 0 0 0 0 0 0 0 0 0 127 0" result="hardAlpha"/>
<feOffset dy="3.11864"/>
<feGaussianBlur stdDeviation="1.55932"/>
<feComposite in2="hardAlpha" operator="arithmetic" k2="-1" k3="1"/>
<feColorMatrix type="matrix" values="0 0 0 0 0 0 0 0 0 0 0 0 0 0 0 0 0 0 0.25 0"/>
<feBlend mode="normal" in2="shape" result="effect1_innerShadow_0_294"/>
</filter>
<filter id="filter8_d_0_294" x="230" y="229.755" width="51.6225" height="102.035" filterUnits="userSpaceOnUse" color-interpolation-filters="sRGB">
<feFlood flood-opacity="0" result="BackgroundImageFix"/>
<feColorMatrix in="SourceAlpha" type="matrix" values="0 0 0 0 0 0 0 0 0 0 0 0 0 0 0 0 0 0 127 0" result="hardAlpha"/>
<feOffset dy="4"/>
<feGaussianBlur stdDeviation="1"/>
<feComposite in2="hardAlpha" operator="out"/>
<feColorMatrix type="matrix" values="0 0 0 0 0 0 0 0 0 0 0 0 0 0 0 0 0 0 0.5 0"/>
<feBlend mode="normal" in2="BackgroundImageFix" result="effect1_dropShadow_0_294"/>
<feBlend mode="normal" in="SourceGraphic" in2="effect1_dropShadow_0_294" result="shape"/>
</filter>
<linearGradient id="paint0_linear_0_294" x1="99.7432" y1="115.174" x2="419.868" y2="473.974" gradientUnits="userSpaceOnUse">
<stop stop-color="#BCBCBD"/>
<stop offset="1" stop-color="#474747"/>
</linearGradient>
<linearGradient id="paint1_linear_0_294" x1="126.671" y1="270.381" x2="404.375" y2="579.663" gradientUnits="userSpaceOnUse">
<stop stop-color="#BCBCBD"/>
<stop offset="1" stop-color="#474747"/>
</linearGradient>
<linearGradient id="paint2_linear_0_294" x1="192.145" y1="424.161" x2="349.882" y2="604.531" gradientUnits="userSpaceOnUse">
<stop stop-color="#BCBCBD"/>
<stop offset="1" stop-color="#474747"/>
</linearGradient>
<linearGradient id="paint3_linear_0_294" x1="99.7141" y1="-303.074" x2="757.98" y2="-97.809" gradientUnits="userSpaceOnUse">
<stop stop-color="#BCBCBD"/>
<stop offset="1" stop-color="#474747"/>
</linearGradient>
<linearGradient id="paint4_linear_0_294" x1="184.874" y1="-30.9058" x2="343.115" y2="153.172" gradientUnits="userSpaceOnUse">
<stop stop-color="#BCBCBD"/>
<stop offset="1" stop-color="#474747"/>
</linearGradient>
<linearGradient id="paint5_linear_0_294" x1="122.575" y1="3.68366" x2="398.935" y2="313.388" gradientUnits="userSpaceOnUse">
<stop stop-color="#BCBCBD"/>
<stop offset="1" stop-color="#474747"/>
</linearGradient>
<linearGradient id="paint6_linear_0_294" x1="267.668" y1="-302.934" x2="317.94" y2="-301.842" gradientUnits="userSpaceOnUse">
<stop stop-color="#BCBCBD"/>
<stop offset="1" stop-color="#474747"/>
</linearGradient>
<linearGradient id="paint7_linear_0_294" x1="180.564" y1="-297.205" x2="568.091" y2="-229.744" gradientUnits="userSpaceOnUse">
<stop stop-color="#BCBCBD"/>
<stop offset="1" stop-color="#474747"/>
</linearGradient>
<linearGradient id="paint8_linear_0_294" x1="120.437" y1="-283.552" x2="719.4" y2="-110.001" gradientUnits="userSpaceOnUse">
<stop stop-color="#BCBCBD"/>
<stop offset="1" stop-color="#474747"/>
</linearGradient>
<linearGradient id="paint9_linear_0_294" x1="200.277" y1="-297.816" x2="514.01" y2="-254.107" gradientUnits="userSpaceOnUse">
<stop stop-color="#BCBCBD"/>
<stop offset="1" stop-color="#474747"/>
</linearGradient>
<linearGradient id="paint10_linear_0_294" x1="136.002" y1="-282.461" x2="676.978" y2="-142.933" gradientUnits="userSpaceOnUse">
<stop stop-color="#BCBCBD"/>
<stop offset="1" stop-color="#474747"/>
</linearGradient>
<linearGradient id="paint11_linear_0_294" x1="184.627" y1="391.966" x2="414.437" y2="230.758" gradientUnits="userSpaceOnUse">
<stop stop-color="white"/>
<stop offset="1" stop-color="#55595A"/>
</linearGradient>
<linearGradient id="paint12_linear_0_294" x1="215.15" y1="30.1614" x2="435.049" y2="82.1743" gradientUnits="userSpaceOnUse">
<stop offset="0.15" stop-color="#566070"/>
<stop offset="1" stop-color="#060606"/>
</linearGradient>
<linearGradient id="paint13_linear_0_294" x1="198.847" y1="35.9981" x2="448.425" y2="115.531" gradientUnits="userSpaceOnUse">
<stop offset="0.15" stop-color="#838383"/>
<stop offset="1" stop-color="#1B1B1B"/>
</linearGradient>
<clipPath id="clip0_0_294">
<rect width="66.6663" height="103.923" fill="white" transform="translate(67.3242 117.78)"/>
</clipPath>
<clipPath id="clip1_0_294">
<rect width="66.6663" height="104.044" fill="white" transform="translate(67.3242 117.78)"/>
</clipPath>
<clipPath id="clip2_0_294">
<rect width="66.6663" height="104.049" fill="white" transform="translate(67.3241 117.777)"/>
</clipPath>
<clipPath id="clip3_0_294">
<rect width="66.6663" height="103.923" fill="white" transform="translate(484.324 178.78)"/>
</clipPath>
<clipPath id="clip4_0_294">
<rect width="66.6663" height="104.044" fill="white" transform="translate(484.324 178.78)"/>
</clipPath>
<clipPath id="clip5_0_294">
<rect width="66.6663" height="104.049" fill="white" transform="translate(484.324 178.777)"/>
</clipPath>
<clipPath id="clip6_0_294">
<rect width="66.6663" height="103.923" fill="white" transform="translate(287.324 79.7797)"/>
</clipPath>
<clipPath id="clip7_0_294">
<rect width="66.6663" height="104.044" fill="white" transform="translate(287.324 79.7797)"/>
</clipPath>
<clipPath id="clip8_0_294">
<rect width="66.6663" height="104.049" fill="white" transform="translate(287.324 79.777)"/>
</clipPath>
<clipPath id="clip9_0_294">
<rect width="66.6663" height="103.923" fill="white" transform="translate(397.324 249.78)"/>
</clipPath>
<clipPath id="clip10_0_294">
<rect width="66.6663" height="104.044" fill="white" transform="translate(397.324 249.78)"/>
</clipPath>
<clipPath id="clip11_0_294">
<rect width="66.6663" height="104.049" fill="white" transform="translate(397.324 249.777)"/>
</clipPath>
<clipPath id="clip12_0_294">
<rect width="66.6663" height="103.923" fill="white" transform="translate(128.324 331.78)"/>
</clipPath>
<clipPath id="clip13_0_294">
<rect width="66.6663" height="104.044" fill="white" transform="translate(128.324 331.78)"/>
</clipPath>
<clipPath id="clip14_0_294">
<rect width="66.6663" height="104.049" fill="white" transform="translate(128.324 331.777)"/>
</clipPath>
<clipPath id="clip15_0_294">
<rect width="66.6663" height="103.923" fill="white" transform="translate(0.324219 243.78)"/>
</clipPath>
<clipPath id="clip16_0_294">
<rect width="66.6663" height="104.044" fill="white" transform="translate(0.324219 243.78)"/>
</clipPath>
<clipPath id="clip17_0_294">
<rect width="66.6663" height="104.049" fill="white" transform="translate(0.324219 243.777)"/>
</clipPath>
</defs>
</svg>
