<svg width="81" height="80" viewBox="0 0 81 80" fill="none" xmlns="http://www.w3.org/2000/svg">
<rect x="1.32969" y="0.577734" width="78.8445" height="78.8445" rx="39.4223" fill="url(#paint0_linear_0_452)"/>
<rect x="1.32969" y="0.577734" width="78.8445" height="78.8445" rx="39.4223" stroke="url(#paint1_linear_0_452)" stroke-width="1.15547"/>
<rect x="1.32969" y="0.577734" width="78.8445" height="78.8445" rx="39.4223" stroke="url(#paint2_linear_0_452)" stroke-width="1.15547"/>
<path d="M54.0859 26.6665H27.4193C25.5859 26.6665 24.1026 28.1665 24.1026 29.9998L24.0859 49.9998C24.0859 51.8332 25.5859 53.3332 27.4193 53.3332H54.0859C55.9193 53.3332 57.4193 51.8332 57.4193 49.9998V29.9998C57.4193 28.1665 55.9193 26.6665 54.0859 26.6665ZM54.0859 33.3332L40.7526 41.6665L27.4193 33.3332V29.9998L40.7526 38.3332L54.0859 29.9998V33.3332Z" fill="white"/>
<defs>
<linearGradient id="paint0_linear_0_452" x1="14.5362" y1="-44.3524" x2="110.163" y2="-14.6327" gradientUnits="userSpaceOnUse">
<stop offset="0.15" stop-color="#566070"/>
<stop offset="1" stop-color="#060606"/>
</linearGradient>
<linearGradient id="paint1_linear_0_452" x1="15.0986" y1="-50.7551" x2="110.12" y2="-23.8959" gradientUnits="userSpaceOnUse">
<stop stop-color="#566070"/>
<stop offset="1" stop-color="#060606"/>
</linearGradient>
<linearGradient id="paint2_linear_0_452" x1="15.0986" y1="-50.7551" x2="110.12" y2="-23.8959" gradientUnits="userSpaceOnUse">
<stop stop-color="white" stop-opacity="0.4"/>
<stop offset="1" stop-color="white" stop-opacity="0"/>
</linearGradient>
</defs>
</svg>
